<mxfile host="app.diagrams.net" modified="2022-03-27T08:46:31.788Z" agent="5.0 (Macintosh; Intel Mac OS X 10_15_7) AppleWebKit/537.36 (KHTML, like Gecko) Chrome/99.0.4844.83 Safari/537.36" etag="eoSYel44gl8KNiy2J9ev" version="16.1.0" type="github">
  <diagram id="2rSVrQ-UQtUry9Um_auS" name="Page-1">
    <mxGraphModel dx="1141" dy="713" grid="1" gridSize="10" guides="1" tooltips="1" connect="1" arrows="1" fold="1" page="1" pageScale="1" pageWidth="1200" pageHeight="1600" math="0" shadow="0">
      <root>
        <mxCell id="0" />
        <mxCell id="1" parent="0" />
        <mxCell id="m81ecIrq7j8ZZ4mYQdu3-1" value="new ApplicationContext()的子类" style="rounded=1;whiteSpace=wrap;html=1;" vertex="1" parent="1">
          <mxGeometry x="400" y="190" width="120" height="60" as="geometry" />
        </mxCell>
        <mxCell id="m81ecIrq7j8ZZ4mYQdu3-2" value="new ApplicationContext()的子类" style="rounded=1;whiteSpace=wrap;html=1;" vertex="1" parent="1">
          <mxGeometry x="400" y="280" width="120" height="60" as="geometry" />
        </mxCell>
      </root>
    </mxGraphModel>
  </diagram>
</mxfile>
